<svg width="16" height="16" viewBox="0 0 16 16" fill="none" xmlns="http://www.w3.org/2000/svg">
<path d="M10.89 6.93133H11.3857C11.7361 6.9323 12.0832 6.86373 12.4069 6.72962C12.7307 6.5955 13.0246 6.39849 13.2717 6.15L16 3.4L15.2593 2.65333L12.4733 5.43933L11.8943 4.86033L14.6803 2.074L13.9137 1.33033L11.138 4.10567L10.5607 3.52667L13.3467 0.740333L12.6 0L9.85 2.72833C9.60148 2.97546 9.40446 3.26943 9.27035 3.59322C9.13623 3.91701 9.06768 4.2642 9.06867 4.61467V5.11L7.631 6.54767L1.06667 0C-0.409333 1.829 0.462333 5.19033 2.124 6.85233L4.974 9.70233C5.859 10.5873 6.03467 10.6663 7.03867 10.2623C7.255 10.1753 7.33367 10.185 7.53533 10.3863L7.96867 10.7907C8.06633 10.8907 8.06867 10.92 8.06867 11.1113V11.296C8.06867 11.9987 8.518 12.4027 8.814 12.704L12.2667 16L14.6667 13.6L9.45233 8.369L10.89 6.93133Z" fill="#C85735"/>
<path d="M7.04567 11.2863C6.05167 11.49 5.442 11.6777 4.27633 10.512C4.25767 10.4933 4.23833 10.4753 4.21967 10.4567L3.56967 9.80667L0 13.3333L2.66667 16L7.46667 11.2L7.04567 11.2863Z" fill="#FEBF79"/>
</svg>
